<?xml version="1.0" encoding="UTF-8" standalone="no"?>
<!-- Created with Inkscape (http://www.inkscape.org/) -->

<svg
   xmlns:dc="http://purl.org/dc/elements/1.1/"
   xmlns:cc="http://creativecommons.org/ns#"
   xmlns:rdf="http://www.w3.org/1999/02/22-rdf-syntax-ns#"
   xmlns:svg="http://www.w3.org/2000/svg"
   xmlns="http://www.w3.org/2000/svg"
   xmlns:sodipodi="http://sodipodi.sourceforge.net/DTD/sodipodi-0.dtd"
   xmlns:inkscape="http://www.inkscape.org/namespaces/inkscape"
   width="64"
   height="64"
   id="svg5345"
   version="1.1"
   inkscape:version="0.48.2 r9819"
   sodipodi:docname="New document 1">
  <defs
     id="defs5347" />
  <sodipodi:namedview
     id="base"
     pagecolor="#ffffff"
     bordercolor="#666666"
     borderopacity="1.0"
     inkscape:pageopacity="0.0"
     inkscape:pageshadow="2"
     inkscape:zoom="13.1875"
     inkscape:cx="19.146919"
     inkscape:cy="30.341321"
     inkscape:document-units="px"
     inkscape:current-layer="layer1"
     showgrid="true"
     inkscape:window-width="1920"
     inkscape:window-height="1032"
     inkscape:window-x="0"
     inkscape:window-y="0"
     inkscape:window-maximized="1">
    <inkscape:grid
       type="xygrid"
       id="grid2982"
       empspacing="1"
       visible="true"
       enabled="true"
       snapvisiblegridlinesonly="true"
       spacingx="4px"
       spacingy="4px" />
  </sodipodi:namedview>
  <metadata
     id="metadata5350">
    <rdf:RDF>
      <cc:Work
         rdf:about="">
        <dc:format>image/svg+xml</dc:format>
        <dc:type
           rdf:resource="http://purl.org/dc/dcmitype/StillImage" />
        <dc:title></dc:title>
      </cc:Work>
    </rdf:RDF>
  </metadata>
  <g
     inkscape:label="Layer 1"
     inkscape:groupmode="layer"
     id="layer1"
     transform="translate(0,-988.36218)">
    <rect
       y="992.36218"
       x="30"
       height="56"
       width="4"
       id="rect2986"
       style="fill:#55ddff;fill-opacity:1;stroke:none" />
    <rect
       style="fill:#55ddff;fill-opacity:1;stroke:none"
       id="rect2996"
       width="4"
       height="56"
       x="30"
       y="992.36218" />
    <rect
       y="489.39648"
       x="912.44415"
       height="12.000002"
       width="4"
       id="rect2998"
       style="fill:#55ddff;fill-opacity:1;stroke:none"
       transform="matrix(0.5,0.8660254,-0.8660254,0.5,0,0)" />
    <rect
       transform="matrix(-0.5,0.8660254,0.8660254,0.5,0,0)"
       style="fill:#55ddff;fill-opacity:1;stroke:none"
       id="rect3006"
       width="4"
       height="12.000002"
       x="880.44415"
       y="544.82208" />
    <rect
       style="fill:#55ddff;fill-opacity:1;stroke:none"
       id="rect3008"
       width="4"
       height="56"
       x="30"
       y="-1048.3622"
       transform="scale(1,-1)" />
    <rect
       y="-1048.3622"
       x="30"
       height="56"
       width="4"
       id="rect3010"
       style="fill:#55ddff;fill-opacity:1;stroke:none"
       transform="scale(1,-1)" />
    <rect
       transform="matrix(0.5,-0.8660254,-0.8660254,-0.5,0,0)"
       style="fill:#55ddff;fill-opacity:1;stroke:none"
       id="rect3012"
       width="4"
       height="12.000002"
       x="-854.875"
       y="-530.9657" />
    <rect
       y="-475.5401"
       x="-886.875"
       height="12.000002"
       width="4"
       id="rect3014"
       style="fill:#55ddff;fill-opacity:1;stroke:none"
       transform="matrix(-0.5,-0.8660254,0.8660254,-0.5,0,0)" />
    <rect
       style="fill:#55ddff;fill-opacity:1;stroke:none"
       id="rect3016"
       width="4"
       height="56"
       x="897.65961"
       y="454.46829"
       transform="matrix(0.5,0.8660254,-0.8660254,0.5,0,0)" />
    <rect
       y="454.46829"
       x="897.65961"
       height="56"
       width="4"
       id="rect3018"
       style="fill:#55ddff;fill-opacity:1;stroke:none"
       transform="matrix(0.5,0.8660254,-0.8660254,0.5,0,0)" />
    <rect
       transform="matrix(-0.5,0.8660254,-0.8660254,-0.5,0,0)"
       style="fill:#55ddff;fill-opacity:1;stroke:none"
       id="rect3020"
       width="4"
       height="12.000002"
       x="880.44415"
       y="-530.9657" />
    <rect
       y="1027.2904"
       x="-19.215416"
       height="12.000002"
       width="4"
       id="rect3022"
       style="fill:#55ddff;fill-opacity:1;stroke:none"
       transform="scale(-1,1)" />
    <rect
       transform="matrix(0.5,0.8660254,0.8660254,-0.5,0,0)"
       y="-510.46829"
       x="897.65961"
       height="56"
       width="4"
       id="rect3024"
       style="fill:#55ddff;fill-opacity:1;stroke:none" />
    <rect
       transform="matrix(0.5,0.8660254,0.8660254,-0.5,0,0)"
       style="fill:#55ddff;fill-opacity:1;stroke:none"
       id="rect3026"
       width="4"
       height="56"
       x="897.65961"
       y="-510.46829" />
    <rect
       y="-1013.434"
       x="44.784569"
       height="12.000002"
       width="4"
       id="rect3028"
       style="fill:#55ddff;fill-opacity:1;stroke:none"
       transform="scale(1,-1)" />
    <rect
       transform="matrix(0.5,-0.8660254,0.8660254,0.5,0,0)"
       style="fill:#55ddff;fill-opacity:1;stroke:none"
       id="rect3030"
       width="4"
       height="12.000002"
       x="-854.875"
       y="544.82208" />
    <rect
       transform="matrix(-0.5,0.8660254,-0.8660254,-0.5,0,0)"
       y="-565.89392"
       x="865.65961"
       height="56"
       width="4"
       id="rect3032"
       style="fill:#55ddff;fill-opacity:1;stroke:none" />
    <rect
       transform="matrix(-0.5,0.8660254,-0.8660254,-0.5,0,0)"
       style="fill:#55ddff;fill-opacity:1;stroke:none"
       id="rect3034"
       width="4"
       height="56"
       x="865.65961"
       y="-565.89392" />
    <rect
       y="-1013.434"
       x="-19.215452"
       height="12.000002"
       width="4"
       id="rect3036"
       style="fill:#55ddff;fill-opacity:1;stroke:none"
       transform="scale(-1,-1)" />
    <rect
       transform="matrix(-0.5,-0.8660254,-0.8660254,0.5,0,0)"
       style="fill:#55ddff;fill-opacity:1;stroke:none"
       id="rect3038"
       width="4"
       height="12.000002"
       x="-886.875"
       y="489.39648" />
    <rect
       style="fill:#55ddff;fill-opacity:1;stroke:none"
       id="rect3040"
       width="4"
       height="56"
       x="865.65961"
       y="509.89392"
       transform="matrix(-0.5,0.8660254,0.8660254,0.5,0,0)" />
    <rect
       y="509.89392"
       x="865.65961"
       height="56"
       width="4"
       id="rect3042"
       style="fill:#55ddff;fill-opacity:1;stroke:none"
       transform="matrix(-0.5,0.8660254,0.8660254,0.5,0,0)" />
    <rect
       transform="matrix(0.5,0.8660254,0.8660254,-0.5,0,0)"
       style="fill:#55ddff;fill-opacity:1;stroke:none"
       id="rect3044"
       width="4"
       height="12.000002"
       x="912.44415"
       y="-475.5401" />
    <rect
       y="1027.2904"
       x="44.784607"
       height="12.000002"
       width="4"
       id="rect3046"
       style="fill:#55ddff;fill-opacity:1;stroke:none" />
  </g>
</svg>
