<?xml version="1.0" encoding="UTF-8" standalone="no"?>
<!-- Created with Inkscape (http://www.inkscape.org/) -->

<svg
   xmlns:dc="http://purl.org/dc/elements/1.1/"
   xmlns:cc="http://creativecommons.org/ns#"
   xmlns:rdf="http://www.w3.org/1999/02/22-rdf-syntax-ns#"
   xmlns:svg="http://www.w3.org/2000/svg"
   xmlns="http://www.w3.org/2000/svg"
   xmlns:sodipodi="http://sodipodi.sourceforge.net/DTD/sodipodi-0.dtd"
   xmlns:inkscape="http://www.inkscape.org/namespaces/inkscape"
   width="64"
   height="64"
   id="svg5345"
   version="1.1"
   inkscape:version="0.48.2 r9819"
   sodipodi:docname="leafy.svg"
   inkscape:export-filename="/Users/Alex/Dropbox/Android/RibotChallenge/res/drawable-xhdpi/leafy.png"
   inkscape:export-xdpi="90"
   inkscape:export-ydpi="90">
  <defs
     id="defs5347" />
  <sodipodi:namedview
     id="base"
     pagecolor="#ffffff"
     bordercolor="#666666"
     borderopacity="1.0"
     inkscape:pageopacity="0.0"
     inkscape:pageshadow="2"
     inkscape:zoom="13.1875"
     inkscape:cx="31.924171"
     inkscape:cy="32"
     inkscape:document-units="px"
     inkscape:current-layer="layer1"
     showgrid="true"
     inkscape:window-width="1920"
     inkscape:window-height="1032"
     inkscape:window-x="0"
     inkscape:window-y="0"
     inkscape:window-maximized="1"
     gridtolerance="10">
    <inkscape:grid
       type="xygrid"
       id="grid2982"
       empspacing="1"
       visible="true"
       enabled="true"
       snapvisiblegridlinesonly="true"
       spacingx="4px"
       spacingy="4px" />
  </sodipodi:namedview>
  <metadata
     id="metadata5350">
    <rdf:RDF>
      <cc:Work
         rdf:about="">
        <dc:format>image/svg+xml</dc:format>
        <dc:type
           rdf:resource="http://purl.org/dc/dcmitype/StillImage" />
        <dc:title></dc:title>
      </cc:Work>
    </rdf:RDF>
  </metadata>
  <g
     inkscape:label="Layer 1"
     inkscape:groupmode="layer"
     id="layer1"
     transform="translate(0,-988.36218)">
    <path
       inkscape:connector-curvature="0"
       style="fill:#c87137;fill-opacity:1;fill-rule:nonzero;stroke:none"
       d="m 37.625246,996.18997 c -1.724492,1.7077 -8.651156,8.48673 -10.53312,4.84663 -0.270152,2.8968 0.924535,6.5516 -1.714694,8.556 -2.096126,-1.1667 -3.909502,-2.6309 -4.636672,-4.9167 -2.717615,1.124 -5.332348,-1.7706 -6.491342,-4.0417 0.403828,2.5146 2.946475,15.4371 -2.85199,12.2303 2.914979,6.8301 11.655019,15.5582 -2.064632,15.1873 3.225024,0.3954 14.636488,2.7015 13.05267,7.0512 3.001065,0.6334 4.292334,-2.3173 6.928763,-2.5195 0.08078,-0.01 0.166151,-0.016 0.244957,-0.017 0.764,3.4431 2.540266,6.6849 2.502053,9.5183 -0.0022,0.6796 -0.100782,1.32 -0.314944,1.9597 l 1.452241,0.4899 c 0.273651,-0.8133 0.386331,-1.6321 0.384931,-2.4496 -0.03762,-3.1491 -1.568604,-6.263 -2.362078,-9.2033 1.251925,0.5047 2.291503,1.5364 3.411891,2.432 0.704774,-1.9183 8.065361,-2.3508 10.043208,-1.4172 -8.466389,-3.9984 2.85619,-8.7632 6.7188,-10.6906 -5.566806,0.2583 3.213827,-8.29 3.271916,-10.0782 -2.019839,0.8755 -7.492162,1.3207 -7.856097,-1.3648 -6.578126,7.3291 -6.449349,-1.5425 -4.70666,-6.5438 -3.944496,2.3439 -3.938197,-2.3312 -3.516873,-4.9516 -1.002921,-1.07643 -1.149894,-2.59373 -0.962328,-4.07683 z"
       id="path508" />
  </g>
</svg>
