<?xml version="1.0" encoding="UTF-8" standalone="no"?>
<!-- Created with Inkscape (http://www.inkscape.org/) -->

<svg
   xmlns:dc="http://purl.org/dc/elements/1.1/"
   xmlns:cc="http://creativecommons.org/ns#"
   xmlns:rdf="http://www.w3.org/1999/02/22-rdf-syntax-ns#"
   xmlns:svg="http://www.w3.org/2000/svg"
   xmlns="http://www.w3.org/2000/svg"
   xmlns:sodipodi="http://sodipodi.sourceforge.net/DTD/sodipodi-0.dtd"
   xmlns:inkscape="http://www.inkscape.org/namespaces/inkscape"
   width="384"
   height="384"
   id="svg5345"
   version="1.1"
   inkscape:version="0.48.2 r9819"
   sodipodi:docname="New document 1"
   inkscape:export-filename="/Users/Alex/Dropbox/Android/RibotChallenge/res/drawable-hdpi/ribotar_basic.png"
   inkscape:export-xdpi="67.5"
   inkscape:export-ydpi="67.5">
  <defs
     id="defs5347" />
  <sodipodi:namedview
     id="base"
     pagecolor="#ffffff"
     bordercolor="#666666"
     borderopacity="1.0"
     inkscape:pageopacity="0.0"
     inkscape:pageshadow="2"
     inkscape:zoom="1.6484375"
     inkscape:cx="179.8673"
     inkscape:cy="158.93839"
     inkscape:document-units="px"
     inkscape:current-layer="layer1"
     showgrid="false"
     inkscape:window-width="1920"
     inkscape:window-height="1032"
     inkscape:window-x="0"
     inkscape:window-y="0"
     inkscape:window-maximized="1" />
  <metadata
     id="metadata5350">
    <rdf:RDF>
      <cc:Work
         rdf:about="">
        <dc:format>image/svg+xml</dc:format>
        <dc:type
           rdf:resource="http://purl.org/dc/dcmitype/StillImage" />
        <dc:title></dc:title>
      </cc:Work>
    </rdf:RDF>
  </metadata>
  <g
     inkscape:label="Layer 1"
     inkscape:groupmode="layer"
     id="layer1"
     transform="translate(0,-668.36218)">
    <path
       style="fill:#ffffff;opacity:0.7"
       d="m 196.30402,956.26961 c 0,-2.4914 -8.07939,-12.11529 -17.95419,-21.38644 -12.27666,-11.52619 -18.91038,-20.40772 -20.978,-28.08626 -3.75532,-13.94612 0.37512,-26.7707 8.62207,-26.7707 8.33723,0 9.9445,7.56483 4.17696,19.65943 -3.76173,7.88846 -4.2321,11.86938 -1.84944,15.65304 4.52653,7.18816 12.50387,7.96852 19.23037,1.88112 5.27482,-4.77364 5.76063,-9.69745 5.76063,-58.38477 0,-44.3489 -0.78003,-53.95149 -4.70109,-57.87255 -2.58559,-2.58561 -6.52654,-4.70109 -8.75768,-4.70109 -5.10965,0 -16.44758,14.1646 -16.48647,20.59675 -0.015,2.65753 -3.17274,-1.89925 -7.0148,-10.12615 -3.84205,-8.2269 -10.25538,-18.99666 -14.2518,-23.93281 -16.73215,-20.66645 -16.80942,-20.80338 -9.56475,-16.94359 9.04271,4.81774 22.30224,4.3526 30.01994,-1.05307 5.39723,-3.78039 6.87607,-3.85707 8.89253,-0.46118 1.33031,2.24032 7.38686,9.81436 13.45903,16.83122 l 11.04036,12.75789 4.30303,-10.29864 c 4.40716,-10.54782 17.83042,-23.26963 24.55263,-23.26963 2.0678,0 4.60414,3.36471 5.6363,7.47715 1.06477,4.24235 7.02915,10.72979 13.78652,14.99554 12.40512,7.83103 15.81785,16.41812 6.52498,16.41812 -11.44105,0 -12.56472,5.37474 -12.56472,60.09893 0,47.3539 0.59204,53.6502 5.62965,59.87138 l 5.62966,6.95233 -11.43429,5.11929 c -6.28885,2.81561 -17.38662,10.60595 -24.66171,17.31189 -14.45377,13.32303 -17.04572,14.48823 -17.04572,7.6628 z"
       id="path3047"
       inkscape:connector-curvature="0" />
  </g>
</svg>
