<?xml version="1.0" encoding="UTF-8" standalone="no"?>
<!-- Created with Inkscape (http://www.inkscape.org/) -->

<svg
   xmlns:dc="http://purl.org/dc/elements/1.1/"
   xmlns:cc="http://creativecommons.org/ns#"
   xmlns:rdf="http://www.w3.org/1999/02/22-rdf-syntax-ns#"
   xmlns:svg="http://www.w3.org/2000/svg"
   xmlns="http://www.w3.org/2000/svg"
   xmlns:sodipodi="http://sodipodi.sourceforge.net/DTD/sodipodi-0.dtd"
   xmlns:inkscape="http://www.inkscape.org/namespaces/inkscape"
   width="64"
   height="64"
   id="svg5345"
   version="1.1"
   inkscape:version="0.48.2 r9819"
   sodipodi:docname="sunny.svg"
   inkscape:export-filename="/Users/Alex/Dropbox/Android/RibotChallenge/res/drawable-mdpi/sunny.png"
   inkscape:export-xdpi="45"
   inkscape:export-ydpi="45">
  <defs
     id="defs5347" />
  <sodipodi:namedview
     id="base"
     pagecolor="#ffffff"
     bordercolor="#666666"
     borderopacity="1.0"
     inkscape:pageopacity="0.0"
     inkscape:pageshadow="2"
     inkscape:zoom="13.1875"
     inkscape:cx="31.924171"
     inkscape:cy="32"
     inkscape:document-units="px"
     inkscape:current-layer="layer1"
     showgrid="true"
     inkscape:window-width="1920"
     inkscape:window-height="1032"
     inkscape:window-x="0"
     inkscape:window-y="0"
     inkscape:window-maximized="1"
     gridtolerance="10">
    <inkscape:grid
       type="xygrid"
       id="grid2982"
       empspacing="1"
       visible="true"
       enabled="true"
       snapvisiblegridlinesonly="true"
       spacingx="4px"
       spacingy="4px" />
  </sodipodi:namedview>
  <metadata
     id="metadata5350">
    <rdf:RDF>
      <cc:Work
         rdf:about="">
        <dc:format>image/svg+xml</dc:format>
        <dc:type
           rdf:resource="http://purl.org/dc/dcmitype/StillImage" />
        <dc:title></dc:title>
      </cc:Work>
    </rdf:RDF>
  </metadata>
  <g
     inkscape:label="Layer 1"
     inkscape:groupmode="layer"
     id="layer1"
     transform="translate(0,-988.36218)">
    <path
       style="fill:#ffcc00;fill-opacity:1;stroke:none"
       d="M 32 10.6875 L 28.125 15.0625 L 22.75 12.8125 L 21.1875 18.4375 L 15.34375 18.71875 L 16.34375 24.46875 L 11.21875 27.25 L 14.625 32 L 11.21875 36.75 L 16.34375 39.53125 L 15.34375 45.28125 L 21.1875 45.5625 L 22.75 51.1875 L 28.125 48.9375 L 32 53.3125 L 35.875 48.9375 L 41.25 51.1875 L 42.8125 45.5625 L 48.65625 45.28125 L 47.65625 39.53125 L 52.78125 36.75 L 49.375 32 L 52.78125 27.25 L 47.65625 24.46875 L 48.65625 18.71875 L 42.8125 18.4375 L 41.25 12.8125 L 35.875 15.0625 L 32 10.6875 z M 32 18 C 39.731986 18 46 24.268014 46 32 C 46 39.731986 39.731986 46 32 46 C 24.268014 46 18 39.731986 18 32 C 18 24.268014 24.268014 18 32 18 z "
       transform="translate(0,988.36218)"
       id="path4073" />
    <path
       sodipodi:type="arc"
       style="fill:#ffcc00;fill-opacity:1;stroke:none"
       id="path4077"
       sodipodi:cx="32"
       sodipodi:cy="32"
       sodipodi:rx="10.919432"
       sodipodi:ry="10.919432"
       d="m 42.919432,32 a 10.919432,10.919432 0 1 1 -21.838864,0 10.919432,10.919432 0 1 1 21.838864,0 z"
       transform="matrix(1.0073784,0,0,1.0073784,-0.2361088,988.12607)" />
  </g>
</svg>
